<svg width="261" height="64" viewBox="0 0 261 64" fill="none" xmlns="http://www.w3.org/2000/svg">
<path d="M32.604 16.5167C32.2069 17.5011 31.7859 18.4495 31.4129 19.4218C30.9919 20.5263 30.5949 21.6427 30.3543 22.8072C30.258 23.2754 30.234 23.7436 30.3783 24.1998C30.5949 24.908 31.2205 25.2682 31.9423 25.1001C32.7483 24.908 33.3258 24.3678 33.8792 23.8156C35.6717 22.0149 37.5605 20.3222 39.6898 18.9176C41.9756 17.405 44.4418 16.2766 47.1486 15.7844C49.278 15.4002 51.4194 15.3042 53.5127 16.0365C54.9804 16.5527 56.0511 17.5011 56.5082 19.0377C56.809 20.0581 56.5564 20.9945 55.9909 21.8588C55.3293 22.8672 54.4631 23.7076 53.6089 24.5599C51.648 26.5407 49.6389 28.4735 47.702 30.4663C45.9336 32.279 44.3696 34.2598 43.1786 36.5047C42.517 37.7532 41.9515 39.0497 41.759 40.4543C41.5545 41.9909 41.6628 43.4675 42.7816 44.692C43.5034 45.4843 44.4418 45.8685 45.4764 46.0245C47.6178 46.3607 49.6509 45.8925 51.5878 45.0041C55.8466 43.0593 59.2271 40.1182 61.5129 35.9885C62.5595 34.0917 63.2212 32.0629 63.4979 29.9021C63.8949 26.8888 63.5821 23.9717 62.2708 21.2226C60.3579 17.225 57.2902 14.5359 52.9232 13.4795C50.6374 12.9272 48.3396 13.0953 46.0539 13.6355C43.2388 14.3078 40.6522 15.5323 38.186 17.0209C37.8251 17.237 37.4642 17.4531 37.0552 17.5971C36.4777 17.8252 35.8882 17.8852 35.407 17.417C34.9017 16.9248 34.8296 16.3126 35.0341 15.6523C35.2506 14.9561 35.7679 14.4759 36.3334 14.0677C37.9815 12.8432 39.8582 12.0989 41.8312 11.5947C43.7681 11.1025 45.7411 10.9224 47.7261 11.0305C50.6615 11.1865 53.4646 11.8948 56.1112 13.1793C59.191 14.6799 61.7655 16.7928 63.7385 19.5899C65.4348 22.0029 66.5415 24.68 67.119 27.5731C67.5882 29.9261 67.6604 32.303 67.3235 34.668C66.6498 39.2898 64.5686 43.2034 61.164 46.3967C58.012 49.3499 54.2706 51.1506 50.0479 51.9669C48.1712 52.3271 46.2824 52.4591 44.3817 52.195C42.6854 51.9549 41.0733 51.4747 39.7259 50.3463C38.5108 49.3259 37.9334 48.0173 37.9093 46.4567C37.8732 44.1158 38.4627 41.9069 39.3049 39.746C40.3154 37.141 41.7831 34.788 43.3831 32.5071C44.7426 30.5743 46.2223 28.7256 47.5095 26.7328C47.9186 26.0965 48.3878 25.4723 48.5682 24.716C48.7126 24.1397 48.472 23.6595 47.9426 23.4074C47.281 23.1073 46.5591 23.1193 45.8614 23.1433C43.8523 23.2154 41.9756 23.8036 40.2913 24.86C37.1755 26.8288 35.2867 29.662 34.589 33.2874C34.0235 36.1926 34.3604 39.0137 35.383 41.7748C35.7078 42.6392 35.9724 43.5275 35.8642 44.4759C35.7559 45.4843 35.1424 46.2886 34.2762 46.5047C33.6145 46.6728 33.025 46.4687 32.4596 46.1326C31.6656 45.6524 31.0761 44.9681 30.5227 44.2478C28.4535 41.5467 27.1181 38.5215 26.5286 35.1842C25.8188 31.1746 26.2519 27.273 27.852 23.5035C28.9347 20.9345 30.4625 18.6655 32.4596 16.7088C32.4836 16.6247 32.5438 16.5767 32.604 16.5167Z" fill="#F15A29"/>
<path d="M12.9515 11.107H14.9557C16.5832 11.107 17.9072 12.431 17.9072 14.0586V49.9871C17.9072 51.6147 16.5832 52.9387 14.9557 52.9387H12.9515C11.3239 52.9387 10 51.6147 10 49.9871V14.0586C10 12.431 11.3239 11.107 12.9515 11.107Z" fill="black"/>
<path d="M123.239 11.107H125.244C126.871 11.107 128.195 12.431 128.195 14.0586V50.0236C128.195 51.6512 126.871 52.9751 125.244 52.9751H123.239C121.612 52.9751 120.288 51.6512 120.288 50.0236V14.0586C120.288 12.431 121.612 11.107 123.239 11.107Z" fill="black"/>
<path d="M102.955 11.107H110.789V47.6186C110.789 49.149 110.254 50.4244 109.173 51.4447C108.092 52.465 106.671 52.9751 104.898 52.9751C101.448 52.9751 97.6467 50.8495 93.5048 46.5862C89.363 42.3229 85.9134 37.1486 83.1684 31.0633V52.9751H75.3341V16.4149C75.3341 13.4877 77.7148 11.107 80.642 11.107C82.0752 11.107 83.302 12.1273 83.5814 13.5363C84.2008 16.6821 85.1604 19.8888 86.4722 23.1561C88.1241 27.2615 89.8974 30.7596 91.8044 33.6383C93.7113 36.5291 95.5697 38.8855 97.3673 40.7317C99.1771 42.5779 100.55 43.501 101.485 43.501C102.469 43.501 102.955 42.8573 102.955 41.5576V11.107Z" fill="black"/>
<path d="M172.688 52.9876H163.882L155.611 39.2502C154.651 41.2786 153.692 43.0277 152.696 44.5217C151.712 46.0035 150.473 47.4368 149.015 48.8093C147.546 50.1697 145.797 51.2142 143.756 51.9309C141.716 52.6475 139.408 52.9997 136.833 52.9997V45.797C138.74 45.797 140.44 45.4569 141.946 44.7524C143.453 44.0601 144.764 42.9912 145.87 41.5458C146.975 40.1004 147.898 38.6793 148.639 37.2947C149.368 35.91 150.194 34.1245 151.105 31.9382L137.707 11.1074H146.513L154.238 24.3711C155.149 22.3912 156.072 20.6907 157.008 19.2575C157.943 17.8242 159.085 16.4517 160.457 15.1278C161.83 13.7917 163.445 12.7957 165.34 12.1276C167.223 11.4596 169.336 11.1195 171.668 11.1195V18.3222C169.968 18.3222 168.437 18.6502 167.089 19.3061C165.741 19.962 164.55 20.9944 163.518 22.4277C162.486 23.8609 161.648 25.2213 160.992 26.5331C160.336 27.8449 159.571 29.5818 158.696 31.7681L172.688 52.9876Z" fill="black"/>
</svg>
